<svg xmlns="http://www.w3.org/2000/svg" viewBox="-14.0 624.5 996.1 289.5" role="img" aria-labelledby="t" xmlns:c2pa="http://c2pa.org/manifest"><metadata><c2pa:manifest>AAAWgmp1bWIAAAAeanVtZGMycGEAEQAQgAAAqgA4m3EDYzJwYQAAABZcanVtYgAAAEdqdW1kYzJtYQARABCAAACqADibcQN1cm46YzJwYTpiYzBlY2UxYS02YTA0LTQ3MjItODczNC1lOTAzYTA1ZTJhYjgAAAADl2p1bWIAAAApanVtZGMyYXMAEQAQgAAAqgA4m3EDYzJwYS5hc3NlcnRpb25zAAAAALxqdW1iAAAARGp1bWRjYm9yABEAEIAAAKoAOJtxE2MycGEuaW5ncmVkaWVudC52MwAAAAAYYzJzaGIi+NhzJywg8KGrbF/09SkAAABwY2JvcqNpZGM6Zm9ybWF0bWltYWdlL3N2Zyt4bWxqaW5zdGFuY2VJRHgseG1wOmlpZDphNWY5NzJjNC1iNzdlLTRiYzMtODBjZi0yM2M5MGQyMWNhYjFscmVsYXRpb25zaGlwaHBhcmVudE9mAAAB4mp1bWIAAABBanVtZGNib3IAEQAQgAAAqgA4m3ETYzJwYS5hY3Rpb25zLnYyAAAAABhjMnNoFyu3tIycY3tmD5Htq7X/dwAAAZljYm9yomdhY3Rpb25zgqJmYWN0aW9ua2MycGEub3BlbmVkanBhcmFtZXRlcnOha2luZ3JlZGllbnRzgaJjdXJseC1zZWxmI2p1bWJmPWMycGEuYXNzZXJ0aW9ucy9jMnBhLmluZ3JlZGllbnQudjNkaGFzaFggTBFI7zfs3x8Jmj1Xfzke9gLOsvoh2E5LHiS+tqF3G8SkZmFjdGlvbngdY29tLmFudGhyb3BpYy5jbGF1ZGUucHJvdmlkZWRqcGFyYW1ldGVyc6F4H2NvbS5hbnRocm9waWMub3JpZ2luLWNvbmZpZGVuY2VndW5rbm93bmtkZXNjcmlwdGlvbnhmQ2xhdWRlIHByb3ZpZGVkIHRoaXMgZmlsZSBhdCB0aGUgcmVxdWVzdCBvZiBhIHVzZXIgYW5kIG1heSBoYXZlIGNyZWF0ZWQgb3IgbW9kaWZpZWQgdGhlIGZpbGUgY29udGVudHMubXNvZnR3YXJlQWdlbnShZG5hbWVmQ2xhdWRlcmFsbEFjdGlvbnNJbmNsdWRlZPUAAADIanVtYgAAAEBqdW1kY2JvcgARABCAAACqADibcRNjMnBhLmhhc2guZGF0YQAAAAAYYzJzaCvLWRSUW21i/Hkzao7tglUAAACAY2JvcqVjYWxnZnNoYTI1NmNwYWRNAAAAAAAAAAAAAAAAAGRoYXNoWCAEJTCsKkEfqBH6Z/Ra+R3fkuK30kIwgd7bnC7xuSnHcmRuYW1lbmp1bWJmIG1hbmlmZXN0amV4Y2x1c2lvbnOBomVzdGFydBioZmxlbmd0aBkeBAAAAj5qdW1iAAAAJ2p1bWRjMmNsABEAEIAAAKoAOJtxA2MycGEuY2xhaW0udjIAAAACD2Nib3KlY2FsZ2ZzaGEyNTZpc2lnbmF0dXJleE1zZWxmI2p1bWJmPS9jMnBhL3VybjpjMnBhOmJjMGVjZTFhLTZhMDQtNDcyMi04NzM0LWU5MDNhMDVlMmFiOC9jMnBhLnNpZ25hdHVyZWppbnN0YW5jZUlEeCx4bXA6aWlkOjAzMDg2NTBkLTNkY2EtNDExZC04NTQ2LTdkMWRjM2VmOTlkZXJjcmVhdGVkX2Fzc2VydGlvbnODomN1cmx4LXNlbGYjanVtYmY9YzJwYS5hc3NlcnRpb25zL2MycGEuaW5ncmVkaWVudC52M2RoYXNoWCBMEUjvN+zfHwmaPVd/OR72As6y+iHYTkseJL62oXcbxKJjdXJseCpzZWxmI2p1bWJmPWMycGEuYXNzZXJ0aW9ucy9jMnBhLmFjdGlvbnMudjJkaGFzaFgg77liLt1k5JTHh8r+KsWdgLaSzHFkFOJgjpkUE8yDy6iiY3VybHgpc2VsZiNqdW1iZj1jMnBhLmFzc2VydGlvbnMvYzJwYS5oYXNoLmRhdGFkaGFzaFggC2TPalq5aZSyLcUCsvyoe/29wOcUpric4kULUuR4ztp0Y2xhaW1fZ2VuZXJhdG9yX2luZm+jZG5hbWVvQW50aHJvcGljIEZpbGVzZ3ZlcnNpb25lMS4wLjBrc3BlY1ZlcnNpb25lMi40LjAAABA4anVtYgAAAChqdW1kYzJjcwARABCAAACqADibcQNjMnBhLnNpZ25hdHVyZQAAABAIY2JvctKEWQISogEmGCFZAgowggIGMIIBjaADAgECAhRA5aAK7sI50L64g/oGQgU9Z1UTADAKBggqhkjOPQQDAzBJMRcwFQYDVQQKEw5BbnRocm9waWMsIFBCQzEuMCwGA1UEAxMlQW50aHJvcGljIENvbnRlbnQgQ3JlZGVudGlhbHMgUm9vdCBDQTAeFw0yNjA4MDcxODQzNTZaFw0yODA4MDYxOTQzNTZaMEQxFzAVBgNVBAoTDkFudGhyb3BpYywgUEJDMSkwJwYDVQQDEyBBbnRocm9waWMgQ2xhdWRlIENvbnRlbnQgU2lnbmluZzBZMBMGByqGSM49AgEGCCqGSM49AwEHA0IABJh6CmvLUBgFFNU0vUKlOVtE6djd17L5SuwX0LemFisBM3dkd/3cyjxFA3Qo5S46fX0/ihY0VZ7mfb9KF703t5OjWDBWMA4GA1UdDwEB/wQEAwIHgDAVBgNVHSUEDjAMBgorBgEEAYPoXgIBMAwGA1UdEwEB/wQCMAAwHwYDVR0jBBgwFoAUzlHiBIFOZFsj+OPEz5o+nMHXXMIwCgYIKoZIzj0EAwMDZwAwZAIwMXMdFJ4BetLLVY7ORuE9noqbbAZOZn/aArXyTwFAZfKrPzxF2vPoJNf1+UCdg1XGAjBwX1zd9WGqYkqmL5SFqw1QySjr1zJfpJM9+1rdDwSPLMOPOjKuiXjoU/pUUeG9RwmhY3BhZFkNngAAAAAAAAAAAAAAAAAAAAAAAAAAAAAAAAAAAAAAAAAAAAAAAAAAAAAAAAAAAAAAAAAAAAAAAAAAAAAAAAAAAAAAAAAAAAAAAAAAAAAAAAAAAAAAAAAAAAAAAAAAAAAAAAAAAAAAAAAAAAAAAAAAAAAAAAAAAAAAAAAAAAAAAAAAAAAAAAAAAAAAAAAAAAAAAAAAAAAAAAAAAAAAAAAAAAAAAAAAAAAAAAAAAAAAAAAAAAAAAAAAAAAAAAAAAAAAAAAAAAAAAAAAAAAAAAAAAAAAAAAAAAAAAAAAAAAAAAAAAAAAAAAAAAAAAAAAAAAAAAAAAAAAAAAAAAAAAAAAAAAAAAAAAAAAAAAAAAAAAAAAAAAAAAAAAAAAAAAAAAAAAAAAAAAAAAAAAAAAAAAAAAAAAAAAAAAAAAAAAAAAAAAAAAAAAAAAAAAAAAAAAAAAAAAAAAAAAAAAAAAAAAAAAAAAAAAAAAAAAAAAAAAAAAAAAAAAAAAAAAAAAAAAAAAAAAAAAAAAAAAAAAAAAAAAAAAAAAAAAAAAAAAAAAAAAAAAAAAAAAAAAAAAAAAAAAAAAAAAAAAAAAAAAAAAAAAAAAAAAAAAAAAAAAAAAAAAAAAAAAAAAAAAAAAAAAAAAAAAAAAAAAAAAAAAAAAAAAAAAAAAAAAAAAAAAAAAAAAAAAAAAAAAAAAAAAAAAAAAAAAAAAAAAAAAAAAAAAAAAAAAAAAAAAAAAAAAAAAAAAAAAAAAAAAAAAAAAAAAAAAAAAAAAAAAAAAAAAAAAAAAAAAAAAAAAAAAAAAAAAAAAAAAAAAAAAAAAAAAAAAAAAAAAAAAAAAAAAAAAAAAAAAAAAAAAAAAAAAAAAAAAAAAAAAAAAAAAAAAAAAAAAAAAAAAAAAAAAAAAAAAAAAAAAAAAAAAAAAAAAAAAAAAAAAAAAAAAAAAAAAAAAAAAAAAAAAAAAAAAAAAAAAAAAAAAAAAAAAAAAAAAAAAAAAAAAAAAAAAAAAAAAAAAAAAAAAAAAAAAAAAAAAAAAAAAAAAAAAAAAAAAAAAAAAAAAAAAAAAAAAAAAAAAAAAAAAAAAAAAAAAAAAAAAAAAAAAAAAAAAAAAAAAAAAAAAAAAAAAAAAAAAAAAAAAAAAAAAAAAAAAAAAAAAAAAAAAAAAAAAAAAAAAAAAAAAAAAAAAAAAAAAAAAAAAAAAAAAAAAAAAAAAAAAAAAAAAAAAAAAAAAAAAAAAAAAAAAAAAAAAAAAAAAAAAAAAAAAAAAAAAAAAAAAAAAAAAAAAAAAAAAAAAAAAAAAAAAAAAAAAAAAAAAAAAAAAAAAAAAAAAAAAAAAAAAAAAAAAAAAAAAAAAAAAAAAAAAAAAAAAAAAAAAAAAAAAAAAAAAAAAAAAAAAAAAAAAAAAAAAAAAAAAAAAAAAAAAAAAAAAAAAAAAAAAAAAAAAAAAAAAAAAAAAAAAAAAAAAAAAAAAAAAAAAAAAAAAAAAAAAAAAAAAAAAAAAAAAAAAAAAAAAAAAAAAAAAAAAAAAAAAAAAAAAAAAAAAAAAAAAAAAAAAAAAAAAAAAAAAAAAAAAAAAAAAAAAAAAAAAAAAAAAAAAAAAAAAAAAAAAAAAAAAAAAAAAAAAAAAAAAAAAAAAAAAAAAAAAAAAAAAAAAAAAAAAAAAAAAAAAAAAAAAAAAAAAAAAAAAAAAAAAAAAAAAAAAAAAAAAAAAAAAAAAAAAAAAAAAAAAAAAAAAAAAAAAAAAAAAAAAAAAAAAAAAAAAAAAAAAAAAAAAAAAAAAAAAAAAAAAAAAAAAAAAAAAAAAAAAAAAAAAAAAAAAAAAAAAAAAAAAAAAAAAAAAAAAAAAAAAAAAAAAAAAAAAAAAAAAAAAAAAAAAAAAAAAAAAAAAAAAAAAAAAAAAAAAAAAAAAAAAAAAAAAAAAAAAAAAAAAAAAAAAAAAAAAAAAAAAAAAAAAAAAAAAAAAAAAAAAAAAAAAAAAAAAAAAAAAAAAAAAAAAAAAAAAAAAAAAAAAAAAAAAAAAAAAAAAAAAAAAAAAAAAAAAAAAAAAAAAAAAAAAAAAAAAAAAAAAAAAAAAAAAAAAAAAAAAAAAAAAAAAAAAAAAAAAAAAAAAAAAAAAAAAAAAAAAAAAAAAAAAAAAAAAAAAAAAAAAAAAAAAAAAAAAAAAAAAAAAAAAAAAAAAAAAAAAAAAAAAAAAAAAAAAAAAAAAAAAAAAAAAAAAAAAAAAAAAAAAAAAAAAAAAAAAAAAAAAAAAAAAAAAAAAAAAAAAAAAAAAAAAAAAAAAAAAAAAAAAAAAAAAAAAAAAAAAAAAAAAAAAAAAAAAAAAAAAAAAAAAAAAAAAAAAAAAAAAAAAAAAAAAAAAAAAAAAAAAAAAAAAAAAAAAAAAAAAAAAAAAAAAAAAAAAAAAAAAAAAAAAAAAAAAAAAAAAAAAAAAAAAAAAAAAAAAAAAAAAAAAAAAAAAAAAAAAAAAAAAAAAAAAAAAAAAAAAAAAAAAAAAAAAAAAAAAAAAAAAAAAAAAAAAAAAAAAAAAAAAAAAAAAAAAAAAAAAAAAAAAAAAAAAAAAAAAAAAAAAAAAAAAAAAAAAAAAAAAAAAAAAAAAAAAAAAAAAAAAAAAAAAAAAAAAAAAAAAAAAAAAAAAAAAAAAAAAAAAAAAAAAAAAAAAAAAAAAAAAAAAAAAAAAAAAAAAAAAAAAAAAAAAAAAAAAAAAAAAAAAAAAAAAAAAAAAAAAAAAAAAAAAAAAAAAAAAAAAAAAAAAAAAAAAAAAAAAAAAAAAAAAAAAAAAAAAAAAAAAAAAAAAAAAAAAAAAAAAAAAAAAAAAAAAAAAAAAAAAAAAAAAAAAAAAAAAAAAAAAAAAAAAAAAAAAAAAAAAAAAAAAAAAAAAAAAAAAAAAAAAAAAAAAAAAAAAAAAAAAAAAAAAAAAAAAAAAAAAAAAAAAAAAAAAAAAAAAAAAAAAAAAAAAAAAAAAAAAAAAAAAAAAAAAAAAAAAAAAAAAAAAAAAAAAAAAAAAAAAAAAAAAAAAAAAAAAAAAAAAAAAAAAAAAAAAAAAAAAAAAAAAAAAAAAAAAAAAAAAAAAAAAAAAAAAAAAAAAAAAAAAAAAAAAAAAAAAAAAAAAAAAAAAAAAAAAAAAAAAAAAAAAAAAAAAAAAAAAAAAAAAAAAAAAAAAAAAAAAAAAAAAAAAAAAAAAAAAAAAAAAAAAAAAAAAAAAAAAAAAAAAAAAAAAAAAAAAAAAAAAAAAAAAAAAAAAAAAAAAAAAAAAAAAAAAAAAAAAAAAAAAAAAAAAAAAAAAAAAAAAAAAAAAAAAAAAAAAAAAAAAAAAAAAAAAAAAAAAAAAAAAAAAAAAAAAAAAAAAAAAAAAAAAAAAAAAAAAAAAAAAAAAAAAAAAAAAAAAAAAAAAAAAAAAAAAAAAAAAAAAAAAAAAAAAAAAAAAAAAAAAAAAAAAAAAAAAAAAAAAAAAAAAAAAAAAAAAAAAAAAAAAAAAAAAAAAAAAAAAAAAAAAAAAAAAAAAAAAAAAAAAAAAAAAAAAAAAAAAAAAAAAAAAAAAAAAAAAAAAAAAAAAAAAAAAAAAAAAAAAAAAAAAAAAAAAAAAAAAAAAAAAAAAAAAAAAAAAAAAAAAAAAAAAAAAAAAAAAAAAAAAAAAAAAAAAAAAAAAAAAAAAAAAAAAAAAAAAAAAAAAAAAAAAAAAAAAAAAAAAAAAAAAAAAAAAAAAAAAAAAAAAAAAAAAAAAAAAAAAAAAAAAAAAAAAAAAAAAAAAAAAAAAAAAAAAAAAAAAAAAAAAAAAAAAAAAAAAAAAAAAAAAAAAAAAAAAAAAAAAAAAAAAAAAAAAAAAAAAAAAAAAAAAAAAAAAAAAAAAAAAAAAAAAAAAAAAAAAAAAAAAAAAAAAAAAAAAAAAAAAAAAAAAAAAAAAAAAAAAAAAAAAAAAAAAAAAAAAAAAAAAAAAAAAAAAAAAAAAAAAAAAAAAAAAAAAAAAAAAAAAAAAAAAAAAAAAAAAAAAAAAAAAAAAAAAAAAAAAAAAAAAAAAAAAAAAAAAAAAAAAAAAAAAAAAAAAAAAAAAAAAAAAAAAAAAAAAAAAAAAAAAAAAAAAAAAAAAAAAAAAAAAAAAAAAAAAAAAAAAAAAAAAAAAAAAAAAAAAAAAAAAAAAAAAAAAAAAAAAAAAAAAAAAAAAAAAAAAAAAAAAAAAAAAAAAAAAAAAAAAAAAAAAAAAAAAAAAAAAAAAAAAAAAAAAAAAAAAAAAAAAAAAAAAAAAAAAAAAAAAAAAAAAAAAAAAAAAAAAAAAAAAAAAAAAAAAAAAAAAAAAAAAAAAAAAAAAAAAAAAAAAAAAAAAAAAAAAAAAAAAAAAAAAAAAAAAAAAAAAAAAAAAAAAAAAAAAAAAAAAAAAAAAAAAAAAAAAAAAAAAAAAAAAAAAAAAAAAAAAAAAAAAAAAAAAAAAAAAAAAAAAAAAAAAAAAAAAAAAAAAAAAAAAAAAAAAAAAAAAAAAAAAAAAAAAAAAAAAAAAAAAAAAAAAAAAAAAAAAAAAAAAAAAAAAAAAAAAAAAAAAAAAAAAAAAAAAAAAAAAAAAAAAAAAAAAAAAAAAAAAAAAAAAAAAAAAAAAAAAAAAAAAAAAAAAAAAAAAAAAAAAAAAAAAAAAAAAAAAAAAAAAAAAAAAAAAAAAAAAAAAAAAAPZYQNlts4Aow7hwyQqLn7xgRwEsYfWxVhXKqDH/MJR5MOg0P8HnFZuY1OGDzdxtROvWsDLJHTSHIWJJJE2USw5uZYo=</c2pa:manifest></metadata>
  <title id="t">Wasel</title>
  <style>
    :root { --primary: #9ae600; --text: #222727; }
    @supports (color: oklch(0 0 0)) { :root { --primary: oklch(0.841 0.238 128.85); } }
    @media (prefers-color-scheme: dark) { :root { --text: #ffffff; } }
  </style>
  <defs>
    <path id="w" d="M626.3 454.2C626.1 454.4 625.6 454.2 625.3 454.3C623.7 455.4 619.8 465.5 618.8 467.8C613.6 479.3 608.2 490.8 603.1 502.4C590.3 531.3 576.4 559.9 563.3 588.7C552.5 612.4 542.8 634 518.6 646.8C512.4 650.1 506.1 653 499.2 654.5C469.2 660.9 438.8 651.5 419.3 627.5C410.3 616.5 405.3 602.3 399.6 589.4C394.5 577.8 389.1 566.4 384.1 554.7C377.1 538.2 369.2 521.9 361.8 505.5C351.1 481.8 340.7 458 330 434.3C320.7 414 311.7 393.6 302.8 373.1C298.5 363.4 292.2 354 294.1 342.9C299.7 310.3 327.9 313.8 353.1 313.9C369.4 313.9 382.3 312.5 395.9 323.4C403.8 329.8 407.8 340.6 411.7 349.7C418 364.5 424.8 378.9 431 393.7C440.9 417.3 451.9 440.6 462.1 464.1C467.1 475.7 471.8 487.5 477.3 499C478.6 501.7 480.6 508.9 482.6 510.8C482.8 511 483.2 511 483.4 511.2C490.9 498.3 496.1 483.3 502.3 469.5C513.7 444.3 525.5 419.2 536.5 393.8C544.1 376.4 554.1 349.1 567.1 335.7C571.5 331.1 576.1 326.6 581.4 323.1C613.9 301.7 661.4 306.2 687.1 336.3C698 349.1 704.1 364.9 711.4 379.8C724.4 406.4 736.8 433.5 748.8 460.6C753.5 471.3 758.5 481.8 763.1 492.5C764 494.4 768.6 505.3 769.7 506C769.9 506.2 770.4 505.9 770.6 506.2C774.2 499.2 777 491.6 780.3 484.3C789 464.9 797.5 445.3 806.3 425.8C816.6 403.1 826.9 380.3 837 357.4C840.7 348.9 845.1 340.5 848.3 331.9C839.9 327.9 855.7 334.2 846.8 330.7C837.5 327.1 819.8 325.8 813.6 317.9C806.5 308.9 812.9 300.5 820.8 295.8C840.6 284 860.6 272.7 880.3 260.7C893.9 252.4 908.1 244.9 921.7 236.5C928.1 232.5 934.9 227.5 942.8 230C946.3 231.2 949.5 233.4 951.5 236.5C955.4 242.6 963.3 272.2 966 281.1C972.4 301.8 979.4 322.4 985.5 343.1C988 351.5 991.9 361.8 981.8 367C973 371.6 957.3 364 948 361.7C942.4 370.3 938.7 380.9 934.5 390.5C928 405.1 921.3 419.7 915 434.3C896.4 477.1 877.4 519.8 858.5 562.5C849.6 582.7 839.1 611.5 826.3 628.9C821 636 814.4 641.4 806.9 645.9C772.3 666.8 727.6 656.2 705.9 622.2C700.5 613.8 696.6 604.4 692.4 595.4C687.9 585.8 683.2 576.2 678.8 566.5C668.3 543.4 657.4 520.5 646.7 497.6C639.9 483.1 634 468.1 626.3 454.2Z"/>
    <clipPath id="wc"><use href="#w"/></clipPath>
    <linearGradient id="f0" gradientUnits="userSpaceOnUse" x1="700.2" y1="453.0" x2="647.3" y2="409.9"><stop offset="0" stop-color="#000" stop-opacity="0.143"/><stop offset="1" stop-color="#000" stop-opacity="0.348"/></linearGradient><linearGradient id="f1" gradientUnits="userSpaceOnUse" x1="833.5" y1="530.6" x2="790.7" y2="567.1"><stop offset="0" stop-color="#000" stop-opacity="0.147"/><stop offset="1" stop-color="#000" stop-opacity="0.365"/></linearGradient><linearGradient id="f2" gradientUnits="userSpaceOnUse" x1="546.5" y1="537.3" x2="502.7" y2="575.2"><stop offset="0" stop-color="#000" stop-opacity="0.147"/><stop offset="1" stop-color="#000" stop-opacity="0.364"/></linearGradient>
  </defs>
  <g transform="translate(-179.34 498.23) scale(0.61)">
    <use href="#w" fill="var(--primary)"/>
    <g clip-path="url(#wc)"><path fill="url(#f0)" d="M655.7 512C651.3 508 626.2 458.1 626.1 452.5C626 445.9 633.2 436.6 635.9 430.7C645.5 409.7 657.9 375.6 684.4 372.2C709.9 368.8 713.4 383.9 722.4 403.2C725.1 409 731.6 418.4 727.9 424.8C720.6 437.3 700.1 451.2 690.5 463.8C686.8 468.6 684.4 474.1 680.8 479C675.3 486.3 668.4 492.8 662.8 500.3C660 504.1 658.5 508.6 655.7 512Z"/><path fill="url(#f1)" d="M785 479.5C787.6 480.1 789 479.9 791.3 481.9C796.7 486.4 800.2 492.6 804.8 497.9C816.8 511.2 829.1 524.7 842.1 536.9C845.9 540.5 858.4 551.7 859.2 556.2C860.5 563.1 844.6 597 839.8 603C837.8 605.4 835.1 606.7 832.1 607.2C812.8 610.7 806.9 589.8 800.6 575.9C796.3 566.6 770.5 513.8 770.3 508.4C770.1 502.4 780.6 483.5 785 479.5Z"/><path fill="url(#f2)" d="M499.6 481.8C504 484.9 505.8 489.4 509.5 493.7C523.4 509.7 536.2 527.4 550.9 542.5C557.4 549.2 570.2 554.5 572.1 564.5C573.4 571.2 554.9 610.2 549.4 615.2C546.8 617.5 543.4 617.9 540 617.5C523.3 615.4 518.8 595 513 582C509.1 573.1 483.4 517.7 483.3 513.2C483.3 506.8 495 485.8 499.6 481.8Z"/></g>
  </g>
  <path transform="translate(-78.89 0)" fill="var(--primary)" fill-rule="evenodd" d="M585.5 877.6C578.7 881.7 590.9 872.4 583.7 877.9C577.6 882.6 572.3 888 565.3 891.5C546.1 901.2 522.3 902.1 501.9 895.6C482.4 889.3 465.5 876.3 455.8 858.1C440.3 828.7 446.8 787.4 470 764C482.6 751.3 498.1 742.5 515.4 737.9C550.9 728.3 602 737.3 622 771.2C628.4 782.1 628 795 628 807.2C628 823.9 628.1 840.5 628 857.2C627.9 865.8 629.3 881.5 627.5 889.2C626.9 891.9 625.2 894 622.6 895C619.3 896.3 596.6 896.2 592.7 895.4C591.4 895.1 590.1 894.6 589.1 893.7C584.9 890.4 586 882.3 585.5 877.6ZM544.8 861.6C571.9 859.2 586.4 839.4 586.3 813.2C586.2 804.3 584.7 796 579.3 788.7C569.2 775.1 550 771.2 534 773C508.3 775.8 488.9 798.1 491.6 824.2C492.5 832.7 495.6 841.3 501.5 847.8C512 859.5 529.8 863 544.8 861.6ZM789.5 759.5C789.2 760.4 789.6 761.4 789.2 762.4C788 765.7 775.3 782.9 772.6 784.9C771.3 785.9 769.6 786.4 767.9 786.3C762.7 786.1 757.4 781 752.9 778.7C744.7 774.7 735.1 772 726 771.3C716.6 770.7 696.5 770.5 692.7 781.7C688 795.6 717.9 798.9 726.4 800.6C757.4 807 803.3 816 793.4 859.2C790.9 869.9 783.2 879.1 774.1 885C746.8 902.6 710.8 902.6 680.4 893.7C671.6 891.2 645.4 879.8 642.8 870.7C642.3 869.1 642.5 867.3 643.2 865.8C644.9 862.2 657.3 846 660.3 843.7C661.6 842.6 663.3 842.2 665 842.4C669.8 843 676.8 850.9 681.4 853.6C696.2 862.1 714.4 865.9 731.5 863.5C737.4 862.8 747.3 860.9 749 853.9C751.9 842.1 728.7 838.8 720.9 837.2C695.3 832.1 654.6 827.1 648.7 795.4C644.2 771.6 659.2 753.7 680 744.5C705.2 733.3 737.5 734.8 763.2 744C771.3 747 781.5 751 787.9 757C788.7 757.8 788.8 758.7 789.5 759.5ZM849.2 833.7C855.7 866.3 898.6 871.6 924.6 860.1C931.5 857.1 944.6 844.2 948.2 843.6C952.1 843 971.6 851.4 974.9 854.2C975.7 854.9 975.9 855.9 976.5 856.6C976.4 857.6 976.9 858.6 976.6 859.6C975.4 864 970.7 868.4 967.7 871.6C952.3 888.1 930.5 897.3 908.2 899.1C862.7 902.8 813.6 885.2 806.2 834.4C804.9 825.4 805.2 816.4 806.8 807.5C815.1 759.4 858.9 732.9 905.5 735.9C927.1 737.3 947.6 744.5 963.6 759.5C977.7 772.8 985.6 792.2 987.3 811.2C987.8 817 989.5 827.3 983.7 830.9C978.9 833.9 953.1 832.6 945.9 832.5C925.9 832.3 905.9 832.7 885.9 832.5C876.9 832.4 858.9 831.3 850.8 832.7C839.8 834.6 859.6 831.2 849.2 833.7ZM942.4 801.8C934.3 772.9 897.5 763.4 872.3 776.5C868.2 778.6 864.5 781.8 861.1 784.9C856.9 788.9 852.1 794.8 850.7 800.6C847.9 812 853 791.4 850.9 802.5C866.7 804.7 883.7 802.9 899.8 803.1C909.8 803.2 919.8 803.2 929.8 803C933.4 803 937.3 803.4 940.8 802.8C952.6 800.6 931.2 804.6 942.4 801.8ZM1040.2 894.7C1036.1 895.7 1014.4 895.4 1010.2 894.5C1008.2 894.1 1006.4 893.1 1005.2 891.4C1001.7 886.1 1003.5 859.4 1003.5 851.7C1003.4 816.3 1003.4 780.9 1003.5 745.6C1003.5 731.9 1003.4 718.2 1003.4 704.5C1003.5 697.9 1003.6 691.2 1010.9 689C1015.9 687.5 1034.8 687.5 1039.9 688.7C1042.2 689.3 1044.3 690.5 1045.6 692.5C1049.3 697.8 1047.6 726.2 1047.6 734.2C1047.3 769.5 1048 804.9 1047.6 840.3C1047.5 853.6 1047.6 867 1047.6 880.3C1047.6 886.6 1047.4 892.9 1040.2 894.7Z"/>
</svg>
